<?xml version="1.0" encoding="iso-8859-1"?>
<!-- Generator: Adobe Illustrator 19.0.0, SVG Export Plug-In . SVG Version: 6.00 Build 0)  -->
<svg version="1.1" id="Layer_1" xmlns="http://www.w3.org/2000/svg" xmlns:xlink="http://www.w3.org/1999/xlink" x="0px" y="0px"
	 viewBox="0 0 512 512" style="enable-background:new 0 0 512 512;" xml:space="preserve">
<g>
	<g>
		<path d="M475.739,217.6c-2.787-6.377-6.074-12.485-9.819-18.268V0h-38.4v161.05c-19.936-12.814-43.66-20.25-69.12-20.25H153.6
			c-52.486,0-97.586,31.596-117.339,76.8H0V320h36.261c19.753,45.204,64.852,76.8,117.339,76.8h51.2l51.2-64l51.2,64h51.2
			c25.461,0,49.184-7.435,69.12-20.25v20.89c0,41.995-34.165,76.16-76.16,76.16s-76.16-34.164-76.16-76.16v-0.64h-38.4v0.64
			c0,63.169,51.391,114.56,114.56,114.56s114.56-51.391,114.56-114.56v-59.172c3.745-5.784,7.032-11.891,9.819-18.268H512V217.6
			H475.739z M64,268.8c0-49.407,40.193-89.6,89.6-89.6h48.093L72.996,307.898C67.238,296.076,64,282.81,64,268.8z M256,271.331
			L186.344,358.4H153.6c-21.45,0-41.158-7.584-56.6-20.201L256,179.2h102.4c14.01,0,27.276,3.237,39.098,8.996L281.94,303.754
			L256,271.331z M358.4,358.4h-32.744l-19.581-24.476L427.799,212.2C440.416,227.643,448,247.35,448,268.8
			C448,318.207,407.807,358.4,358.4,358.4z"/>
	</g>
</g>
<g>
</g>
<g>
</g>
<g>
</g>
<g>
</g>
<g>
</g>
<g>
</g>
<g>
</g>
<g>
</g>
<g>
</g>
<g>
</g>
<g>
</g>
<g>
</g>
<g>
</g>
<g>
</g>
<g>
</g>
</svg>
